<svg xmlns="http://www.w3.org/2000/svg"  viewBox="0 0 72 72" width="64px" height="64px"><path fill="#fff" d="M51.688,20.005C53.581,20.104,55,21.803,55,23.698c0,1.895,0,10.008,0,15.552c0,5.636,0.307,9.191-1.946,14.299	c-3.638,8.248-12.775,14.3-24.06,9.857c-3.345-1.317-8.894-4.533-11.553-11.663c-2.699-7.238-4.251-12.841-4.947-15.321	s-0.007-5.154,2.682-6.117c2.195-0.786,4.273,0.43,5.115,1.968c0.365,0.667,1.378,3.423,2.362,6.088	c0.271,0.733,1.356,0.543,1.357-0.239c0.001-7.6,0.004-18.038,0.006-22.641c0.001-1.989,1.666-3.582,3.678-3.476	c1.884,0.099,3.298,1.789,3.298,3.675C30.993,17.567,31,33.224,31,33.5s0.224,0.5,0.5,0.5c0.276,0,0.5-0.224,0.5-0.5s0-19.005,0-21	s1.67-3.601,3.688-3.495C37.581,9.104,39,10.803,39,12.698c0,1.895,0,20.526,0,20.802s0.224,0.5,0.5,0.5s0.5-0.224,0.5-0.5	s0-16.005,0-18s1.67-3.601,3.688-3.495C45.581,12.104,47,13.803,47,15.698c0,1.895,0,19.526,0,19.802s0.224,0.5,0.5,0.5	c0.277,0,0.5-0.225,0.499-0.499C47.997,34.089,48,25.495,48,23.5S49.67,19.899,51.688,20.005z"/></svg>
